<svg xmlns="http://www.w3.org/2000/svg" viewBox="0 0 300.18 74.1">
    <title>aldia-dallas-horiz</title>
    <g id="Layer_2" data-name="Layer 2">
        <g id="Layer_1-2" data-name="Layer 1">
            <path fill="#00b185" d="M29.15,73.37H17.05V70.84c-2.75,3.3-7.59,3.74-10.23,2.86C2,71.94,0,68.75,0,61.82V49.06c0-5.5.22-13,14.63-13h2.42V17.93a2.44,2.44,0,0,0-2.42-2.42,2.47,2.47,0,0,0-2.53,2.42v13H0V20.79C0,15.29.22,7.92,14.63,7.92s14.52,7.37,14.52,12.87ZM17.05,43.78H14.63a2.49,2.49,0,0,0-2.53,2.53v17.6a2.47,2.47,0,0,0,2.53,2.42,2.44,2.44,0,0,0,2.42-2.42Z" />
            <path d="M34.1,73.37V0H46.2V73.37Z" />
            <path fill="#d12229" d="M80.08,73.37H68V70.29A8,8,0,0,1,61.27,74c-6.71,0-10.34-3.41-10.34-10.34V20.24c0-6.93,2-10.23,6.82-11.88A10.47,10.47,0,0,1,68,10.89V0h12.1ZM68,18a2.44,2.44,0,0,0-2.42-2.42A2.47,2.47,0,0,0,63,18V63.58a2.48,2.48,0,1,0,5,0Z" />
            <path fill="#020202" d="M85.14,73.37V11.5h12.1V73.37Z" />
            <path d="M131.12,73.37H119V70.84c-2.75,3.3-7.59,3.74-10.23,2.86-4.84-1.76-6.82-5-6.82-11.88V49.06c0-5.5.22-13,14.63-13H119V17.93a2.44,2.44,0,0,0-2.42-2.42,2.47,2.47,0,0,0-2.53,2.42v13H102V20.79c0-5.5.22-12.87,14.63-12.87s14.52,7.37,14.52,12.87ZM119,43.78H116.6a2.49,2.49,0,0,0-2.53,2.53v17.6a2.47,2.47,0,0,0,2.53,2.42A2.44,2.44,0,0,0,119,63.91Z" />
            <path fill="#d12229" d="M164.67,73.37h-12.1V70.29A8,8,0,0,1,145.86,74c-6.71,0-10.34-3.41-10.34-10.34V20.24c0-6.93,2-10.23,6.82-11.88a10.47,10.47,0,0,1,10.23,2.53V0h12.1ZM152.57,18a2.44,2.44,0,0,0-2.42-2.42A2.47,2.47,0,0,0,147.62,18V63.58a2.48,2.48,0,1,0,4.95,0Z" />
            <path fill="#d12229" d="M198.33,73.37h-12.1V70.84c-2.75,3.3-7.59,3.74-10.23,2.86-4.84-1.76-6.82-5-6.82-11.88V49.06c0-5.5.22-13,14.63-13h2.42V17.93a2.44,2.44,0,0,0-2.42-2.42,2.47,2.47,0,0,0-2.53,2.42v13h-12.1V20.79c0-5.5.22-12.87,14.63-12.87s14.52,7.37,14.52,12.87Zm-12.1-29.59h-2.42a2.49,2.49,0,0,0-2.53,2.53v17.6a2.47,2.47,0,0,0,2.53,2.42,2.44,2.44,0,0,0,2.42-2.42Z" />
            <path fill="#d12229" d="M203.28,73.37V0h12.1V73.37Z" />
            <path fill="#d12229" d="M220.66,73.37V0h12.1V73.37Z" />
            <path fill="#d12229" d="M266.63,73.37h-12.1V70.84c-2.75,3.3-7.59,3.74-10.23,2.86-4.84-1.76-6.82-5-6.82-11.88V49.06c0-5.5.22-13,14.63-13h2.42V17.93a2.44,2.44,0,0,0-2.42-2.42,2.47,2.47,0,0,0-2.53,2.42v13h-12.1V20.79c0-5.5.22-12.87,14.63-12.87s14.52,7.37,14.52,12.87Zm-12.1-29.59h-2.42a2.49,2.49,0,0,0-2.53,2.53v17.6a2.47,2.47,0,0,0,2.53,2.42,2.44,2.44,0,0,0,2.42-2.42Z" />
            <path fill="#d12229" d="M285.66,74c-14.41,0-14.63-7.48-14.63-13V49h12.1V63.58A2.47,2.47,0,0,0,285.66,66a2.44,2.44,0,0,0,2.42-2.42V43.89H271V23.21c0-5.5.22-15.29,14.63-15.29s14.52,9.79,14.52,15.29v8.58h-12.1V18.7a2.48,2.48,0,1,0-4.95,0V36.19h17.05V61.05C300.18,66.55,300,74,285.66,74Z" />
            <polyline fill="#d12229" points="84.91 8 97.24 8 101.97 1 88.91 1" />
            <text />
        </g>
    </g>
</svg>